<svg width="98" height="102" viewBox="0 0 98 102" fill="none" xmlns="http://www.w3.org/2000/svg">
<path d="M45.4502 0.183757C42.5159 0.408352 38.6478 1.14339 35.6182 2.0826C18.4313 7.37079 5.07434 22.8474 1.5112 41.5705C-1.08017 55.2299 1.35877 69.2365 8.25639 80.5275C13.1152 88.4904 19.3078 94.534 26.7009 98.6176C29.3875 100.108 33.1983 101.762 34.3797 101.966C35.4848 102.15 36.4566 101.578 36.9139 100.476C37.2569 99.6589 37.2569 99.2505 37.1426 94.6361L37.0092 89.6746L35.3705 89.9604C33.5223 90.2667 30.4926 90.1442 28.0156 89.695C26.0149 89.3071 23.9952 88.2454 22.7185 86.857C21.7087 85.7748 21.4419 85.3052 20.1272 82.1813C18.9267 79.3432 17.5548 77.4648 15.7066 76.1172C14.449 75.178 13.401 73.953 13.4772 73.5038C13.5916 72.8912 14.3918 72.6258 15.7828 72.7279C18.4694 72.9321 21.2704 75.0351 23.2711 78.3223C24.643 80.5683 25.9959 81.9771 27.6536 82.8551C28.8349 83.488 29.1589 83.5697 30.8737 83.631C32.8363 83.7126 34.8179 83.3859 36.4185 82.7326C37.1997 82.4059 37.2378 82.3651 37.5236 80.9971C37.8857 79.2411 38.5907 77.6486 39.5434 76.3418L40.2865 75.3414L38.7241 75.1168C33.6938 74.3409 30.1116 73.0342 26.7771 70.727C22.4137 67.7051 19.8223 62.9886 18.5647 55.8016C18.1836 53.5761 18.1265 47.8591 18.4694 45.7561C19.022 42.3463 20.3368 39.2428 22.2803 36.6702L23.1377 35.5472L22.7566 34.2813C21.7658 30.8512 21.9564 26.6859 23.2902 22.5616C23.6331 21.5407 23.7093 21.4998 25.2527 21.5815C27.5011 21.704 32.3218 23.7866 35.5992 26.0326L36.952 26.9718L38.0191 26.7472C38.5907 26.6247 39.6768 26.3797 40.4389 26.1959C45.6026 25.0117 52.9194 25.0117 58.0831 26.1959C58.8453 26.3797 59.9314 26.6247 60.503 26.7472L61.551 26.9514L63.3612 25.7671C67.6674 22.9699 72.5834 21.0711 74.3173 21.5611C74.8127 21.704 74.9461 21.9082 75.3272 23.0924C76.1465 25.6446 76.3752 27.3801 76.2799 30.259C76.2037 32.1987 76.0703 33.2809 75.7845 34.2405L75.3844 35.5472L76.2227 36.6498C77.9186 38.8753 79.1761 41.6317 79.8811 44.5923C80.3003 46.4095 80.3575 53.1065 79.9574 55.6995C79.3476 59.7422 77.7852 63.9891 75.956 66.5617C72.812 70.9924 67.1148 74.0346 59.8933 75.0963L58.2356 75.3414L58.9787 76.3418C59.8742 77.5669 60.5983 79.1391 60.9984 80.8541C61.2652 81.9159 61.3224 83.6514 61.3795 91.1243C61.4748 101.129 61.4748 101.109 62.7514 101.762C63.6279 102.191 64.3329 102.068 67.1148 100.904C81.1768 95.1057 92.2664 81.875 96.3249 66.133C99.0116 55.6587 98.4399 43.5101 94.8006 33.4442C91.5233 24.4604 85.7498 16.2525 78.6426 10.5355C70.9257 4.34897 62.1607 0.857541 52.5955 0.183757C49.261 -0.0612558 48.9371 -0.0612558 45.4502 0.183757Z" fill="white"/>
</svg>
