<svg width="98" height="102" viewBox="0 0 98 102" fill="none" xmlns="http://www.w3.org/2000/svg">
<path d="M37.2516 0.803823C23.0392 4.68879 10.5261 15.3724 4.03781 29.2935C-1.21461 40.4628 -1.36909 61.3445 3.72885 72.19C8.98127 83.683 15.3151 90.6436 25.9744 96.6329C34.9344 101.651 36.7882 102.137 48.8379 101.975C59.9606 101.975 63.2048 101.327 69.8476 97.766C81.4338 91.2911 86.3772 86.4349 92.2476 75.1037C97.0366 65.7151 97.5 63.7726 97.5 51.1465C97.5 38.5203 97.0366 36.5779 92.2476 27.1892C83.4421 10.3544 70.002 1.28944 52.082 0.15633C46.5206 -0.167417 39.8779 -0.00554375 37.2516 0.803823ZM72.1648 26.7036C76.6448 31.3979 76.6448 31.5598 76.6448 51.1465C76.6448 70.7331 76.6448 70.895 72.1648 75.5893C67.6848 80.2837 67.5303 80.2837 48.8379 80.2837C30.1454 80.2837 29.9909 80.2837 25.5109 75.5893C21.0309 70.895 21.0309 70.7331 21.0309 51.1465C21.0309 31.5598 21.0309 31.3979 25.5109 26.7036C29.9909 22.0092 30.1454 22.0092 48.8379 22.0092C67.5303 22.0092 67.6848 22.0092 72.1648 26.7036Z" fill="white"/>
<path d="M29.5275 30.9116C25.9744 34.4728 25.6655 35.9296 25.6655 51.1457C25.6655 66.3618 25.9744 67.8187 29.5275 71.3799C32.9262 75.103 34.3165 75.4268 48.8379 75.4268C63.3593 75.4268 64.7497 75.103 68.1483 71.3799C71.7014 67.8187 72.0104 66.3618 72.0104 51.1457C72.0104 35.9296 71.7014 34.4728 68.1483 30.9116C64.7497 27.1885 63.3593 26.8647 48.8379 26.8647C34.3165 26.8647 32.9262 27.1885 29.5275 30.9116ZM67.0669 35.444C67.3759 37.3865 66.6035 38.1959 64.4407 38.1959C62.1234 38.1959 61.1965 37.2246 61.1965 34.7965C61.1965 30.7497 66.2945 31.2353 67.0669 35.444ZM58.8793 40.624C61.8145 43.5377 62.7414 46.2895 62.7414 51.1457C62.7414 60.2107 57.489 65.7144 48.8379 65.7144C44.2034 65.7144 41.5772 64.7431 38.7965 61.6675C35.8613 58.7538 34.9344 56.0019 34.9344 51.1457C34.9344 42.0808 40.1869 36.5771 48.8379 36.5771C53.4724 36.5771 56.0986 37.5484 58.8793 40.624Z" fill="white"/>
<path d="M42.1952 44.3473C36.6338 50.8222 40.8049 60.8584 49.147 60.8584C57.0256 60.8584 61.1966 49.6891 55.3263 44.1854C51.6187 40.6242 45.2849 40.7861 42.1952 44.3473Z" fill="white"/>
</svg>
