<svg width="98" height="102" viewBox="0 0 98 102" fill="none" xmlns="http://www.w3.org/2000/svg">
<path d="M37.18 0.804075C22.9507 4.68903 10.4227 15.3726 3.92667 29.2937C-1.17733 40.463 -1.33199 61.5065 3.61734 72.1901C9.03067 83.6831 15.2173 90.6436 25.8893 96.6329C34.86 101.651 36.716 102.137 48.78 101.975C59.916 101.975 63.164 101.327 69.8147 97.766C81.4147 91.2911 86.364 86.4349 92.2413 75.1038C97.036 65.7152 97.5 63.7727 97.5 51.1466C97.5 38.5205 97.036 36.578 92.2413 27.1894C83.4253 10.3546 69.9693 1.28969 52.028 0.156583C46.46 -0.167163 39.8093 -0.00529022 37.18 0.804075ZM34.5507 27.1894C35.0147 30.7506 34.2413 32.0456 30.8387 33.6643C27.2813 35.4449 26.508 35.283 23.8787 31.8837C19.7027 26.5419 22.4867 21.6857 29.1373 22.3332C33.3133 22.6569 34.2413 23.6282 34.5507 27.1894ZM69.5053 40.463C76.0013 43.3767 78.1667 49.366 78.1667 65.0677V77.0463H71.98H65.7933V65.877C65.7933 51.6322 65.02 49.5279 59.6067 49.5279C54.1933 49.5279 53.42 51.6322 53.42 65.877V77.0463H47.2333H41.0467V58.4309V39.8155H47.2333C50.636 39.8155 53.42 40.6248 53.42 41.4342C53.42 42.4054 55.276 42.0817 57.7507 40.7867C63.0093 37.7111 63.164 37.7111 69.5053 40.463ZM34.86 58.4309V77.0463H28.6733H22.4867V58.4309V39.8155H28.6733H34.86V58.4309Z" fill="white"/>
</svg>
