<svg width="98" height="102" viewBox="0 0 98 102" fill="none" xmlns="http://www.w3.org/2000/svg">
<path d="M37.7516 0.803823C23.5392 4.68879 11.0261 15.3724 4.53781 29.2935C-0.714608 40.4628 -0.869091 61.3445 4.22885 72.19C9.48127 83.683 15.8151 90.6436 26.4744 96.6329C35.4344 101.651 37.2882 102.137 49.3379 101.975C60.4606 101.975 63.7048 101.327 70.3476 97.766C81.9338 91.2911 86.8772 86.4349 92.7476 75.1037C97.5366 65.7151 98 63.7726 98 51.1465C98 38.5203 97.5366 36.5779 92.7476 27.1892C83.9421 10.3544 70.502 1.28944 52.582 0.15633C47.0206 -0.167417 40.3779 -0.00554375 37.7516 0.803823ZM64.7862 43.8622C57.5255 51.4702 50.5737 57.6214 49.3379 57.6214C48.102 57.6214 41.1503 51.4702 33.8896 43.8622L20.7585 30.1029H49.3379H77.9172L64.7862 43.8622ZM35.4344 51.9558C35.4344 52.9271 31.5723 57.6214 26.9378 62.4776L18.4413 71.2188V51.9558V32.6929L26.9378 41.4341C31.5723 46.2903 35.4344 50.9846 35.4344 51.9558ZM80.2345 52.2796V71.2188L71.7379 62.4776C67.1034 57.6214 63.2413 52.9271 63.2413 52.1177C63.2413 50.6608 78.5351 33.3404 79.771 33.3404C80.08 33.3404 80.2345 41.9197 80.2345 52.2796ZM49.3379 60.8589C51.3462 60.8589 54.4358 59.402 56.2896 57.6214L59.5337 54.3839L67.8758 63.287L76.2179 72.19H49.3379H22.4578L30.7999 63.287L39.142 54.3839L42.3861 57.6214C44.2399 59.402 47.3296 60.8589 49.3379 60.8589Z" fill="white"/>
</svg>
