<svg width="186" height="45" viewBox="0 0 186 45" fill="none" xmlns="http://www.w3.org/2000/svg">
<g clip-path="url(#clip0_71_2)">
<path d="M19.5 44.8988C30.2696 44.8988 39 35.0325 39 22.8618C39 10.691 30.2696 0.824707 19.5 0.824707C8.73045 0.824707 0 10.691 0 22.8618C0 35.0325 8.73045 44.8988 19.5 44.8988Z" fill="#131310"/>
<path d="M3.90758 30.1508L3.47363 18.7802L5.86031 25.7399L13.6713 12.5067L17.2514 13.781L18.7702 33.5817L26.798 15.1533L35.3684 4.37085L19.8549 41.5214L16.058 41.1293L13.6713 19.4663L7.05366 30.1508H3.90758Z" fill="#BBC736" fill-opacity="0.58"/>
<path d="M3.90758 30.1204L3.47363 18.7498L5.86031 25.7095L13.6713 12.4764L17.2514 13.7507L13.6713 19.4361L7.05366 30.1204H3.90758Z" fill="#D1BE13"/>
<path d="M19.9023 41.5214L16.1052 41.1293L18.8174 33.5817L26.8452 15.1533L35.4156 4.37085L19.9023 41.5214Z" fill="#BBC736"/>
</g>
<path d="M54.656 31.2587L47.24 13.9547H49.064L54.656 27.1067L60.224 13.9547H62.048L54.656 31.2587ZM65.7853 16.0667C65.9773 16.2827 66.0973 16.5467 66.0973 16.8347C66.0973 17.1227 65.9773 17.3867 65.7853 17.5787C65.5693 17.7947 65.3053 17.8907 65.0173 17.8907C64.7293 17.8907 64.4653 17.7947 64.2733 17.5787C64.0573 17.3867 63.9613 17.1227 63.9613 16.8347C63.9613 16.5467 64.0573 16.2827 64.2733 16.0667C64.4653 15.8747 64.7293 15.7547 65.0173 15.7547C65.3053 15.7547 65.5693 15.8747 65.7853 16.0667ZM65.8813 30.2747H64.2013V19.7147H65.8813V30.2747ZM79.4296 23.5067L77.6056 23.5307C77.3176 22.8587 76.8616 22.3067 76.2616 21.8987C75.6376 21.4667 75.0376 21.2747 74.4136 21.2747C73.7896 21.2747 73.2376 21.3707 72.8056 21.5627C72.3496 21.7547 71.9656 22.0427 71.6296 22.3787C70.9096 23.1227 70.5496 24.0107 70.5496 25.0187C70.5496 26.0267 70.9096 26.9147 71.6296 27.6587C72.3496 28.4027 73.2136 28.7867 74.2456 28.7867C74.9176 28.7867 75.5176 28.5947 76.0936 28.2587C76.6696 27.8987 77.1016 27.4187 77.4376 26.8187H79.3336C78.7336 28.5227 77.5816 29.6507 75.9016 30.2507C75.3736 30.4427 74.7736 30.5147 74.1016 30.5147C73.4296 30.5147 72.7576 30.3707 72.1096 30.0827C71.4376 29.7947 70.8856 29.3867 70.4056 28.8827C69.3496 27.7787 68.8456 26.5067 68.8456 24.9947C68.8456 23.5067 69.3496 22.2107 70.4056 21.1307C71.4376 20.0507 72.7336 19.4987 74.2456 19.4987C75.4456 19.4987 76.5256 19.8827 77.5096 20.6267C78.4456 21.3707 79.0936 22.3307 79.4296 23.5067ZM80.7613 21.2747V19.7147H83.4013V15.6107H85.0813V19.7147H87.6973V21.2747H85.0813V30.2747H83.4013V21.2747H80.7613ZM98.6197 24.9467C98.6197 23.8907 98.2357 23.0027 97.4917 22.2347C96.7237 21.4907 95.8357 21.1067 94.7797 21.1067C93.7237 21.1067 92.8117 21.4907 92.0677 22.2347C91.2997 23.0027 90.9397 23.8907 90.9397 24.9467C90.9397 26.0027 91.2997 26.8907 92.0677 27.6347C92.8117 28.4027 93.7237 28.7627 94.7797 28.7627C95.8357 28.7627 96.7237 28.4027 97.4917 27.6347C98.2357 26.8907 98.6197 26.0027 98.6197 24.9467ZM100.3 24.9467C100.3 26.4827 99.7477 27.7787 98.6677 28.8347C97.5877 29.9147 96.2677 30.4427 94.7797 30.4427C93.2677 30.4427 91.9477 29.9147 90.8677 28.8347C89.7877 27.7787 89.2597 26.4827 89.2597 24.9467C89.2597 23.4347 89.7877 22.1387 90.8677 21.0587C91.9477 19.9787 93.2437 19.4267 94.7797 19.4267C96.2917 19.4267 97.5877 19.9787 98.6677 21.0587C99.7477 22.1387 100.3 23.4347 100.3 24.9467ZM108.599 21.8987C108.191 21.5627 107.783 21.3707 107.351 21.3707C106.919 21.3707 106.535 21.5147 106.223 21.7547C105.911 21.9947 105.647 22.3067 105.455 22.6667C105.047 23.3627 104.855 24.1307 104.855 24.9947V30.2747H103.175V19.7147H104.855V21.8987L104.927 21.4667C105.479 20.1707 106.343 19.4987 107.543 19.4987C107.903 19.4987 108.263 19.5707 108.599 19.7147V21.8987ZM130.057 31.5947L124.705 17.3867L119.353 31.5947L115.537 13.9547H117.265L119.785 25.8107L124.705 12.9947L129.601 25.8107L132.145 13.9547H133.849L130.057 31.5947ZM146.214 24.7547V25.6667H136.926C137.07 26.5547 137.526 27.2987 138.246 27.8987C138.966 28.4747 139.782 28.7867 140.694 28.7867C141.294 28.7867 141.87 28.6427 142.422 28.3547C142.974 28.0667 143.43 27.6827 143.814 27.1787H145.734C145.278 28.1867 144.606 29.0027 143.694 29.5787C142.782 30.1547 141.87 30.4427 140.934 30.4427C139.998 30.4427 139.206 30.2987 138.534 30.0107C137.862 29.7227 137.286 29.3387 136.782 28.8347C135.702 27.7787 135.174 26.4827 135.174 24.9467C135.174 23.4347 135.702 22.1387 136.782 21.0587C137.862 19.9787 139.158 19.4267 140.694 19.4267C142.158 19.4267 143.454 19.9547 144.534 20.9867C145.638 22.0667 146.214 23.3147 146.214 24.7547ZM144.438 24.2267C144.222 23.3147 143.79 22.5707 143.07 21.9707C142.374 21.3947 141.582 21.1067 140.694 21.1067C139.302 21.1067 138.222 21.7307 137.454 22.9787C137.214 23.3627 137.046 23.7707 136.95 24.2267H144.438ZM150.484 28.7867C150.916 29.0747 151.468 29.2187 152.116 29.2187C153.652 29.2187 154.42 28.6427 154.42 27.4907C154.42 26.8187 153.868 26.2907 152.788 25.9307C152.308 25.7867 151.804 25.6427 151.276 25.5227C150.748 25.3787 150.244 25.2107 149.764 24.9947C149.236 24.7547 148.828 24.4427 148.54 24.0347C148.276 23.6507 148.132 23.1947 148.132 22.6907C148.132 21.6347 148.516 20.8427 149.236 20.2907C149.98 19.7627 150.868 19.4987 151.876 19.4987C152.908 19.4987 153.748 19.6907 154.444 20.1227C155.116 20.5307 155.572 21.2747 155.788 22.3547H153.988C153.82 21.7547 153.532 21.3707 153.172 21.1787C152.812 20.9867 152.356 20.8907 151.828 20.8907C151.324 20.8907 150.868 20.9867 150.484 21.2267C150.1 21.4427 149.908 21.8027 149.908 22.2827C149.908 22.7627 150.076 23.0987 150.388 23.3147C150.7 23.5307 151.084 23.7227 151.564 23.8667C152.02 24.0107 152.524 24.1547 153.052 24.2747C153.604 24.3947 154.108 24.5627 154.564 24.7787C155.668 25.3067 156.196 26.1227 156.196 27.2747C156.196 28.4027 155.788 29.2427 154.972 29.7947C154.564 30.0587 154.132 30.2507 153.628 30.3947C153.124 30.5387 152.596 30.5867 152.02 30.5867C149.572 30.5867 148.18 29.5067 147.82 27.3227H149.596C149.764 28.0187 150.076 28.4987 150.484 28.7867ZM160.308 30.2747H158.628V12.2747H160.308V30.2747ZM174.222 24.7547V25.6667H164.934C165.078 26.5547 165.534 27.2987 166.254 27.8987C166.974 28.4747 167.79 28.7867 168.702 28.7867C169.302 28.7867 169.878 28.6427 170.43 28.3547C170.982 28.0667 171.438 27.6827 171.822 27.1787H173.742C173.286 28.1867 172.614 29.0027 171.702 29.5787C170.79 30.1547 169.878 30.4427 168.942 30.4427C168.006 30.4427 167.214 30.2987 166.542 30.0107C165.87 29.7227 165.294 29.3387 164.79 28.8347C163.71 27.7787 163.182 26.4827 163.182 24.9467C163.182 23.4347 163.71 22.1387 164.79 21.0587C165.87 19.9787 167.166 19.4267 168.702 19.4267C170.166 19.4267 171.462 19.9547 172.542 20.9867C173.646 22.0667 174.222 23.3147 174.222 24.7547ZM172.446 24.2267C172.23 23.3147 171.798 22.5707 171.078 21.9707C170.382 21.3947 169.59 21.1067 168.702 21.1067C167.31 21.1067 166.23 21.7307 165.462 22.9787C165.222 23.3627 165.054 23.7707 164.958 24.2267H172.446ZM178.324 36.2747H176.284L179.836 28.5467L175.42 19.7147H177.34L180.724 26.7947L183.748 19.7147H185.62L178.324 36.2747Z" fill="#D9D9D9"/>
<defs>
<clipPath id="clip0_71_2">
<rect width="39" height="44.0741" fill="white" transform="translate(0 0.824707)"/>
</clipPath>
</defs>
</svg>
