<svg width="683" height="683" viewBox="0 0 683 683" fill="none" xmlns="http://www.w3.org/2000/svg">
<path d="M62.2667 98.7998C36.2667 104.933 19.4667 132 25.8667 157.467C29.8667 173.2 41.4667 186.133 56.6667 191.867L64.1333 194.667H341.333H618.533L626 191.867C641.467 186.133 652.933 173.2 656.933 156.933C661.6 137.733 653.333 117.2 636.533 106C622.667 96.6665 643.333 97.3332 340.667 97.4665C187.333 97.5998 65.2 98.1332 62.2667 98.7998Z" fill="#D1BE13"/>
<path d="M64.9333 293.333C49.2 296 33.7333 308.667 27.8667 323.733C23.7333 334.267 23.7333 348.533 28 359.333C32.2667 370.267 44.2667 382.4 55.3333 386.8L63.3333 390H341.333H619.333L627.333 386.8C632.933 384.533 637.733 381.2 643.467 375.467C653.867 365.067 657.733 355.733 657.733 341.333C657.733 326.933 653.867 317.6 643.467 307.2C637.733 301.467 632.933 298.133 627.333 295.867L619.333 292.667L345.333 292.533C194.667 292.4 68.4 292.8 64.9333 293.333Z" fill="#D1BE13"/>
<path d="M55.4667 491.333C45.3333 495.466 39.2 500.4 33.0667 509.466C16 534.133 25.4667 567.333 53.3333 580.533L62 584.667H341.333H620.667L629.6 580.4C644.933 573.2 654.267 560.8 657.467 543.6C661.467 521.867 647.867 498.933 626 490.8L618.533 488H340.933H63.3333L55.4667 491.333Z" fill="#D1BE13"/>
</svg>
