<svg width="51" height="77" viewBox="0 0 51 77" fill="none" xmlns="http://www.w3.org/2000/svg">
<g clip-path="url(#clip0_35_107)">
<path d="M12.7528 77.0002C19.7894 77.0002 25.5003 71.2508 25.5003 64.1668V51.3335H12.7528C5.71623 51.3335 0.00537109 57.0828 0.00537109 64.1668C0.00537109 71.2508 5.71623 77.0002 12.7528 77.0002Z" fill="#0ACF83"/>
<path d="M0.00537109 38.4998C0.00537109 31.4158 5.71623 25.6665 12.7528 25.6665H25.5003V51.3332H12.7528C5.71623 51.3332 0.00537109 45.5838 0.00537109 38.4998Z" fill="#A259FF"/>
<path d="M0.00537109 12.8333C0.00537109 5.74933 5.71623 0 12.7528 0H25.5003V25.6667H12.7528C5.71623 25.6667 0.00537109 19.9173 0.00537109 12.8333Z" fill="#F24E1E"/>
<path d="M25.5 0H38.2474C45.284 0 50.9949 5.74933 50.9949 12.8333C50.9949 19.9173 45.284 25.6667 38.2474 25.6667H25.5V0Z" fill="#FF7262"/>
<path d="M50.9949 38.4998C50.9949 45.5838 45.284 51.3332 38.2474 51.3332C31.2109 51.3332 25.5 45.5838 25.5 38.4998C25.5 31.4158 31.2109 25.6665 38.2474 25.6665C45.284 25.6665 50.9949 31.4158 50.9949 38.4998Z" fill="#1ABCFE"/>
</g>
<defs>
<clipPath id="clip0_35_107">
<rect width="51" height="77" fill="white"/>
</clipPath>
</defs>
</svg>
